<svg xmlns="http://www.w3.org/2000/svg" width="66.237" height="73.802" viewBox="375.601 1292.471 66.237 73.802"><path d="m432.509 1343.228 8.423-2.455c.655-.191 1.039-.87.864-1.529l-.05-.217a5.943 5.943 0 0 0-.104-.426c-2.022-6.936-6.624-12.669-12.958-16.143a1.257 1.257 0 0 0-1.708.498l-10.366 18.898-.001.001-.001.002-.338.617-9.22-4.078v-1.946c4.18-2.412 7.345-6.363 8.695-11.063.806.022 1.606-.203 2.366-.676 1.168-.728 1.957-1.913 2.113-3.171a4.42 4.42 0 0 0-1.07-3.469 4.4 4.4 0 0 0-2.041-1.296V1303.928c0-4.218-2.983-7.764-7.094-8.431-2.76-.45-5.533-1.306-8.475-2.618a4.774 4.774 0 0 0-4.069.096c-2.419 1.23-4.867 2.078-7.274 2.523-4.087.754-7.053 4.297-7.053 8.421V1316.772a4.369 4.369 0 0 0-1.91 1.157 4.373 4.373 0 0 0-1.232 3.218c.048 1.346.812 2.645 2.042 3.476.779.526 1.577.802 2.406.767 1.315 4.807 4.506 8.84 8.763 11.29 0 .011-.006.02-.006.03v1.686l-9.313 4.119h-.001l-.508.225c-4.731 2.092-7.788 6.774-7.788 11.928v10.347c0 .695.563 1.258 1.258 1.258H439.757c.694 0 1.257-.563 1.257-1.258v-15.095c0-.695-.563-1.258-1.258-1.258h-16.569a13.008 13.008 0 0 0-1.517-2.274l10.839-3.16Zm-24.202 5.434c-.694 0-1.257.563-1.257 1.258v13.837h-21.386v-19.272l7.548-3.338v3.112a6.926 6.926 0 0 0 6.919 6.919 6.926 6.926 0 0 0 6.919-6.92v-3.111l4.972 2.199 2.575 1.139v1.038l-.45.822c-.245.446-.197.995.122 1.392.09.113.21.187.328.26v.665h-6.29Zm30.191 10.063h-28.933v-2.516h28.933v2.516Zm-20.212-14.696a4.977 4.977 0 0 0 2.648-.047l-3.121.91.473-.863Zm3.387-6.174c.11.185.208.38.27.592a2.52 2.52 0 0 1-1.711 3.12 2.52 2.52 0 0 1-.645.09l2.086-3.802Zm9.174 2.853a1.26 1.26 0 0 1 1.21-2.206c.295.162.51.428.603.75v.001a1.25 1.25 0 0 1-.104.957 1.25 1.25 0 0 1-.75.602l-.002.001a1.25 1.25 0 0 1-.957-.105Zm8.196-2.006-3.835 1.118a3.755 3.755 0 0 0-.133-1.271 3.746 3.746 0 0 0-1.808-2.253 3.753 3.753 0 0 0-2.871-.314 3.779 3.779 0 0 0-2.566 4.68c.122.419.323.798.571 1.143l-7.464 2.176a5.038 5.038 0 0 0 3.42-6.238 4.985 4.985 0 0 0-1.393-2.243l1.253-2.284a4.965 4.965 0 0 0 4.267.702 4.997 4.997 0 0 0 3.003-2.41 4.99 4.99 0 0 0 .44-3.716 24.336 24.336 0 0 1 7.116 10.91Zm-11.255-11.996c.809.235 1.46.843 1.703 1.678a2.52 2.52 0 0 1-1.711 3.12 2.47 2.47 0 0 1-2.33-.534l2.338-4.264Zm-42.124-11.558v-4.706c9.788-4.799 19.268-4.8 28.933-.005v4.826c-5.161-2.214-10.19-3.32-15.062-3.32-4.784 0-9.418 1.068-13.87 3.205Zm27.26 2.146c-6.444 2.585-12.8-.52-16.153-2.727 5.157-.502 10.514.402 16.152 2.727Zm-22.266-19.323c2.646-.488 5.323-1.414 7.958-2.753a2.232 2.232 0 0 1 1.904-.042c3.143 1.403 6.119 2.32 9.096 2.804 2.886.468 4.982 2.97 4.982 5.947v3.728c-9.556-4.385-19.271-4.38-28.933.01v-3.746c0-2.912 2.1-5.413 4.993-5.948Zm-4.022 25.731a1.256 1.256 0 0 0-1.633-.94c-.486.165-.935.189-1.547-.224-.558-.377-.916-.945-.936-1.48a1.874 1.874 0 0 1 .528-1.381c.36-.373.842-.577 1.358-.577.828 0 1.144-.56 1.268-1.127 2.494-1.313 5.026-2.261 7.605-2.844 3.886 3.153 9.102 5.665 14.496 5.665 2.507 0 5.05-.548 7.512-1.817.158.071.337.123.568.123a1.89 1.89 0 0 1 1.871 2.132c-.062.511-.416 1.013-.944 1.343-.53.33-.979.382-1.55.18a1.254 1.254 0 0 0-1.647.918c-1.226 5.624-5.384 10.219-10.849 11.99l-.56.181c-1.54.5-3.18.52-4.616.058a16.26 16.26 0 0 1-10.924-12.2Zm10.153 14.594c.953.307 1.945.46 2.95.46 1.067 0 2.149-.173 3.213-.518l.56-.18c.35-.115.68-.271 1.022-.404v6.605a4.408 4.408 0 0 1-4.403 4.403 4.408 4.408 0 0 1-4.403-4.403v-6.38c.354.138.696.3 1.061.417Zm-18.672 16.371c0-3.68 1.938-7.056 5.031-8.956v18.046h-5.031v-9.09Zm60.381 9.09h-28.933v-2.516h28.933v2.516Zm0-10.064h-28.933v-2.515h28.933v2.515Zm-18.276-5.031h-3.11v-.945l1.858-.542c.466.457.88.955 1.252 1.487Z" fill="#a80e0e" fill-rule="evenodd" data-name="Path 4276"/></svg>