<svg xmlns="http://www.w3.org/2000/svg" width="73.144" height="70.212" viewBox="745 1293 73.144 70.212"><g data-name="XMLID_386_"><path d="M818.003 1331.485a28.913 28.913 0 0 0-8.31-17.536 28.687 28.687 0 0 0-14.112-7.748v-3.63a4.865 4.865 0 0 0 3.685-4.714 4.863 4.863 0 0 0-4.857-4.857h-10.286a4.863 4.863 0 0 0-4.858 4.857 4.865 4.865 0 0 0 3.685 4.714v3.64a28.686 28.686 0 0 0-14.069 7.738 28.996 28.996 0 0 0-2.425 2.753c-.036-.003-.072-.005-.108-.005h-10.18a1.429 1.429 0 0 0 0 2.857h8.344a28.639 28.639 0 0 0-2.535 5.491h-15.548a1.429 1.429 0 0 0 0 2.857h14.74a29.047 29.047 0 0 0-.708 5.491h-6.318a1.429 1.429 0 0 0 0 2.858h6.363c.12 1.849.418 3.688.892 5.49h-9.255a1.429 1.429 0 0 0 0 2.858h10.167a28.69 28.69 0 0 0 6.571 10.162 28.911 28.911 0 0 0 17.554 8.312c.943.093 1.888.14 2.831.14 5.575 0 11.079-1.614 15.749-4.655a1.429 1.429 0 1 0-1.56-2.395c-10.222 6.657-23.913 5.218-32.553-3.422-10.138-10.138-10.138-26.633 0-36.771 10.137-10.138 26.633-10.138 36.77 0 8.63 8.629 10.076 22.308 3.441 32.526a1.429 1.429 0 1 0 2.397 1.556c3.545-5.46 5.14-12.054 4.493-18.567Zm-35.88-33.628c0-1.102.897-2 2-2h10.286c1.102 0 2 .898 2 2 0 1.103-.898 2-2 2h-10.286c-1.103 0-2-.897-2-2Zm3.684 7.863v-3.005h6.917v3a29.109 29.109 0 0 0-6.917.005Z" fill="#a80e0e" fill-rule="evenodd" data-name="XMLID_389_"/><path d="M808.683 1352.321a1.434 1.434 0 0 0-1.429 1.429 1.434 1.434 0 0 0 1.43 1.429c.375 0 .742-.152 1.01-.419a1.44 1.44 0 0 0 .418-1.01c0-.376-.153-.744-.419-1.01a1.442 1.442 0 0 0-1.01-.419Z" fill="#a80e0e" fill-rule="evenodd" data-name="XMLID_391_"/><path d="M789.287 1312.193c-12.22 0-22.162 9.942-22.162 22.162 0 12.22 9.942 22.162 22.162 22.162 12.22 0 22.162-9.942 22.162-22.162 0-12.22-9.942-22.162-22.162-22.162Zm0 41.467c-10.645 0-19.304-8.66-19.304-19.305s8.66-19.305 19.304-19.305c10.645 0 19.305 8.66 19.305 19.305s-8.66 19.305-19.305 19.305Z" fill="#a80e0e" fill-rule="evenodd" data-name="XMLID_394_"/><path d="m798.324 1323.298-7.076 7.076a4.412 4.412 0 0 0-1.96-.458c-.704 0-1.37.165-1.962.458l-3.166-3.167a1.429 1.429 0 0 0-2.02 2.02l3.166 3.167a4.41 4.41 0 0 0-.458 1.96 4.444 4.444 0 0 0 4.44 4.44 4.444 4.444 0 0 0 4.439-4.44c0-.703-.166-1.368-.458-1.96l6.868-6.868.207-.208a1.429 1.429 0 0 0-2.02-2.02Zm-9.037 12.639c-.872 0-1.582-.71-1.582-1.582 0-.872.71-1.582 1.582-1.582.873 0 1.582.71 1.582 1.582 0 .872-.71 1.582-1.582 1.582Z" fill="#a80e0e" fill-rule="evenodd" data-name="XMLID_397_"/><path d="M804.562 1332.944h-1.324a1.429 1.429 0 0 0 0 2.857h1.324a1.429 1.429 0 0 0 0-2.857Z" fill="#a80e0e" fill-rule="evenodd" data-name="XMLID_398_"/><path d="M775.336 1332.909h-1.323a1.429 1.429 0 0 0 0 2.857h1.323a1.429 1.429 0 0 0 0-2.857Z" fill="#a80e0e" fill-rule="evenodd" data-name="XMLID_399_"/><path d="M789.305 1321.832c.789 0 1.428-.64 1.428-1.428v-1.324a1.429 1.429 0 0 0-2.857 0v1.324c0 .789.64 1.428 1.429 1.428Z" fill="#a80e0e" fill-rule="evenodd" data-name="XMLID_400_"/><path d="M789.27 1346.877c-.79 0-1.429.64-1.429 1.43v1.323a1.429 1.429 0 0 0 2.857 0v-1.324c0-.789-.64-1.429-1.428-1.429Z" fill="#a80e0e" fill-rule="evenodd" data-name="XMLID_424_"/><path d="M746.429 1341.741a1.44 1.44 0 0 0-1.01.419 1.44 1.44 0 0 0-.419 1.01c0 .377.153.744.419 1.01a1.44 1.44 0 0 0 1.01.418c.375 0 .744-.152 1.01-.418a1.44 1.44 0 0 0 .418-1.01c0-.376-.153-.744-.418-1.01a1.439 1.439 0 0 0-1.01-.419Z" fill="#a80e0e" fill-rule="evenodd" data-name="XMLID_425_"/></g></svg>