<svg xmlns="http://www.w3.org/2000/svg" width="64.64" height="63.957" viewBox="1124 1296 64.64 63.957"><path d="M1188.64 1336.013c0-2.78-1.786-5.149-4.27-6.024v-3.16c.4-.147.784-.341 1.145-.584 1.438-.966 2.263-2.49 2.263-4.185 0-1.06-.328-2.062-.936-2.905.307-.73.4-1.54.25-2.337-1.08-5.782-4.793-11.075-10.453-14.904-5.637-3.814-12.854-5.914-20.319-5.914s-14.682 2.1-20.319 5.914c-5.66 3.829-9.372 9.122-10.453 14.904-.188 1 .005 2.02.527 2.875a4.91 4.91 0 0 0-.598 2.367c0 1.694.825 3.22 2.263 4.186.171.115.35.218.53.312v3.43a6.397 6.397 0 0 0-4.27 6.025v.257a6.37 6.37 0 0 0 2.036 4.67 4.952 4.952 0 0 0-.559 2.287c0 1.264.46 2.433 1.29 3.347v4.556c0 4.867 3.96 8.827 8.827 8.827h41.452c4.868 0 8.828-3.96 8.828-8.827v-3.983c1.214-.969 1.904-2.374 1.904-3.92 0-.97-.274-1.889-.784-2.683a6.36 6.36 0 0 0 1.646-4.274v-.257Zm-2.525 0v.257a3.87 3.87 0 0 1-3.861 3.861h-19.578l8.051-7.98h11.526a3.866 3.866 0 0 1 3.862 3.862Zm-42.98-3.861.2.2 1.295 1.295-2.71 2.712-4.207-4.207h5.422Zm11.92 8.35-7.745-7.746-.001-.002-.603-.602h20.43l-8.438 8.344-.002.002-.003.003-1.82 1.819-1.818-1.819Zm-27.026-23.22c.956-5.114 4.29-9.829 9.387-13.277 5.224-3.534 11.938-5.48 18.904-5.48 6.966 0 13.68 1.946 18.904 5.48 5.097 3.448 8.43 8.163 9.387 13.276.177.949-.58 1.855-1.543 1.855h-53.496c-.964 0-1.72-.906-1.543-1.855Zm.066 4.104c.47.181.975.275 1.477.275h53.496c.697 0 1.397-.18 2.005-.523.119.292.18.607.18.922 0 .839-.418 1.6-1.146 2.089-.744.5-1.692.62-2.543.35-.42-.133-.817-.304-1.251-.397-.47-.1-.95-.145-1.43-.145-2.255 0-3.466.854-4.438 1.54-.853.603-1.526 1.079-2.98 1.079s-2.128-.476-2.981-1.078c-.972-.687-2.182-1.541-4.438-1.541-2.255 0-3.465.854-4.437 1.54-.853.603-1.526 1.079-2.98 1.079s-2.128-.476-2.981-1.079c-.972-.686-2.182-1.54-4.437-1.54-2.256 0-3.466.854-4.438 1.54-.853.603-1.527 1.079-2.98 1.079-1.455 0-2.129-.476-2.982-1.079-.972-.686-2.182-1.54-4.438-1.54a6.39 6.39 0 0 0-2.46.462 2.979 2.979 0 0 1-2.765-.27c-.728-.489-1.146-1.25-1.146-2.089 0-.232.031-.458.093-.674Zm2.951 5.774c.663-.032 1.284-.199 1.9-.434.615-.234 1.286-.28 1.938-.222 1.114.099 1.724.53 2.47 1.056.972.686 2.182 1.54 4.438 1.54 2.255 0 3.465-.854 4.437-1.54.853-.602 1.527-1.078 2.981-1.078s2.128.476 2.98 1.078c.973.686 2.183 1.54 4.438 1.54s3.465-.854 4.437-1.54c.853-.602 1.528-1.078 2.98-1.078 1.455 0 2.129.476 2.982 1.078.972.686 2.182 1.54 4.437 1.54 2.255 0 3.465-.854 4.437-1.54.854-.602 1.527-1.078 2.981-1.078.516 0 1.023.086 1.503.275.47.184.958.317 1.46.375v2.495h-51.05v-2.46c.084 0 .167-.003.251-.007Zm-4.521 8.853a3.866 3.866 0 0 1 3.861-3.861h3.756l6.885 6.885a1.262 1.262 0 0 0 1.785 0l3.604-3.604 4.699 4.698h-20.729a3.862 3.862 0 0 1-3.861-3.861v-.257Zm1.685 6.261a6.406 6.406 0 0 0 2.176.382h23.254l2.341 2.342a1.275 1.275 0 0 0 1.782.004l2.366-2.346h22.124c.712 0 1.423-.12 2.096-.353.141-.05.285-.098.418-.167.043-.022.105-.071.156-.068.07.005.088.095.113.15.137.302.21.632.216.963.02 1.191-.837 2.188-1.957 2.512a2.99 2.99 0 0 1-1.955-.107 6.378 6.378 0 0 0-2.458-.463c-2.255 0-3.465.854-4.437 1.54-.853.603-1.527 1.08-2.98 1.08-1.454 0-2.128-.477-2.982-1.08-.972-.686-2.181-1.54-4.437-1.54-2.255 0-3.465.854-4.437 1.54-.853.603-1.527 1.08-2.98 1.08-1.455 0-2.128-.477-2.982-1.08-.972-.686-2.182-1.54-4.437-1.54-2.255 0-3.465.854-4.437 1.54-.854.603-1.527 1.08-2.981 1.08-1.455 0-2.128-.477-2.981-1.08-.973-.686-2.183-1.54-4.438-1.54-.893 0-1.697.151-2.46.463a2.976 2.976 0 0 1-2.562-.146c-.688-.387-1.2-1.05-1.32-1.84a2.491 2.491 0 0 1-.007-.706c.008-.068.124-.643.187-.62Zm55.138 8.856a6.31 6.31 0 0 1-6.302 6.302h-41.452a6.31 6.31 0 0 1-6.303-6.302v-2.995a5.468 5.468 0 0 0 3.222-.081l.065-.022c.097-.034.194-.069.29-.108a3.907 3.907 0 0 1 1.505-.275c1.454 0 2.128.475 2.98 1.078.973.686 2.183 1.54 4.439 1.54 2.255 0 3.465-.854 4.437-1.54.853-.603 1.527-1.078 2.98-1.078 1.454 0 2.128.475 2.982 1.078.972.686 2.181 1.54 4.437 1.54 2.255 0 3.465-.854 4.437-1.54.853-.603 1.527-1.078 2.98-1.078 1.455 0 2.129.475 2.982 1.078.972.686 2.182 1.54 4.437 1.54 2.255 0 3.465-.854 4.437-1.54.853-.603 1.527-1.078 2.981-1.078.377 0 .754.041 1.117.143.346.096.672.248 1.018.345.75.212 1.561.257 2.33.131v2.862Zm0 0" fill="#a80e0e" fill-rule="evenodd" data-name="Path 4281"/></svg>