<svg xmlns="http://www.w3.org/2000/svg" width="72.913" height="72.913"><path d="M69.385 39.985V24.696a3.532 3.532 0 0 0-3.528-3.528h-2.352c-.907 0-1.726.354-2.352.918a3.5 3.5 0 0 0-2.352-.918h-2.352c-.907 0-1.727.354-2.352.918a3.5 3.5 0 0 0-2.352-.918h-2.352a3.532 3.532 0 0 0-3.528 3.528v15.091c-2.713-1.88-6.673-3.481-12.47-4.158l1.851-12.967a3.375 3.375 0 0 0-3.338-3.846h-10.74V8.232c0-.648.528-1.176 1.176-1.176h9.408a3.532 3.532 0 0 0 3.529-3.528A3.532 3.532 0 0 0 31.752 0H21.168a7.063 7.063 0 0 0-7.056 7.056v11.76H3.372a3.375 3.375 0 0 0-3.338 3.85l2.834 19.836C.073 45.832 0 49.115 0 49.392c0 2.052 1.327 3.78 3.16 4.424a4.676 4.676 0 0 0 .494 5.864A7.06 7.06 0 0 0 0 65.856a7.063 7.063 0 0 0 7.056 7.056h65.857v-29.4a3.532 3.532 0 0 0-3.528-3.528Zm-7.056-15.289c0-.648.528-1.176 1.176-1.176h2.352c.648 0 1.176.528 1.176 1.176v15.289h-4.704V24.696Zm-7.056 0c0-.648.528-1.176 1.176-1.176H58.8c.648 0 1.176.528 1.176 1.176v15.289h-4.704V24.696Zm-7.056 0c0-.648.528-1.176 1.176-1.176h2.352c.648 0 1.176.528 1.176 1.176v15.289h-4.704V24.696ZM29.4 2.352h2.352c.648 0 1.176.528 1.176 1.176 0 .648-.528 1.176-1.176 1.176H29.4V2.352Zm-4.704 0h2.352v2.352h-2.352V2.352Zm-8.232 4.704a4.709 4.709 0 0 1 4.704-4.704h1.176v2.352a3.532 3.532 0 0 0-3.528 3.528v10.584h-2.352V7.056ZM2.532 23.52l-.17-1.184a1.02 1.02 0 0 1 1.009-1.168h28.537a1.02 1.02 0 0 1 1.011 1.165l-.17 1.187H29.4v2.352h3.012l-.671 4.704H3.54l-.672-4.704h24.18V23.52H2.532Zm28.874 9.408-.356 2.489a57.875 57.875 0 0 0-4.002-.136h-2.352c-10.247 0-16.233 2.386-19.741 5.196l-1.079-7.549h27.53ZM2.352 49.393c0-.118.255-11.76 22.344-11.76h2.352c21.937 0 22.339 11.287 22.345 11.76a2.354 2.354 0 0 1-2.352 2.352H4.704a2.354 2.354 0 0 1-2.352-2.352ZM7.056 58.8a2.354 2.354 0 0 1-2.352-2.352 2.354 2.354 0 0 1 2.352-2.352H44.69a2.354 2.354 0 0 1 2.352 2.352 2.354 2.354 0 0 1-2.352 2.352H7.056Zm32.724 2.352-4.825 5.63-12.87-5.63H39.78Zm4.909 9.408H7.057a4.709 4.709 0 0 1-4.705-4.704 4.709 4.709 0 0 1 4.704-4.704h9.162l19.388 8.483 7.272-8.483h1.81a4.709 4.709 0 0 1 4.705 4.704 4.709 4.709 0 0 1-4.704 4.704Zm3.403-10.882a4.68 4.68 0 0 0 1.3-3.23c0-.861-.249-1.657-.653-2.352h17.118v11.76H51.745c0-.826-.15-1.615-.412-2.352h7.468v-2.352h-8.867a7.1 7.1 0 0 0-1.842-1.474Zm22.47-12.638h-2.353v2.352h2.352V70.56H49.934a7.027 7.027 0 0 0 1.4-2.352h16.875V51.745H51.091a4.656 4.656 0 0 0 .654-2.352h14.112V47.04h-14.51c-.383-1.308-1.138-3.005-2.61-4.704h20.648c.648 0 1.176.526 1.176 1.176v3.528Z" fill="#a80e0e" fill-rule="evenodd" data-name="Path 4285"/></svg>